# xmcd
#
# Track frame offsets: 
#        150
#        15902
#        31670
#        47280
#        62990
#        79085
#        93140
#        109130
#        124447
#        139630
#        154545
#        170307
#        184907
#        199400
#        212737
#        228472
#        242377
#        255495
#        270002
#
# Disc length: 3809 seconds
#
# Revision: 0
# Processed by: cddbd v1.5.2PL0 Copyright (c) Steve Scherf et al.
# Submitted via: ExactAudioCopy v0.99pb4
#
DISCID=ea0edf13
DTITLE=Ishman Bracey   - King Of the Blues 12
DYEAR=1900
DGENRE=Blues
TTITLE0=Saturday Blues
TTITLE1=Left Alone Blues
TTITLE2=Leavin' Town Blues [Take 1]
TTITLE3=Leavin' Town Blues [Take 2]
TTITLE4=Brown Mamma Blues [Take 1]
TTITLE5=Brown Mamma Blues [Take 2]
TTITLE6=Trouble Hearted Blues [Take 1]
TTITLE7=Trouble Hearted Blues [Take 2]
TTITLE8=Four Day Blues [Take 1]
TTITLE9=Four Day Blues [Take 2]
TTITLE10=Jake Liquor Blues
TTITLE11=Family Stirving
TTITLE12=Mobile Stomp  (New Orleans Nehi Boys)
TTITLE13=Farish St. Rag  (New Orleans Nehi Boys)
TTITLE14=Woman Woman Blues
TTITLE15=Suitcase Full of Blues
TTITLE16=Bust Up Blues
TTITLE17=Pay Me No Mind
TTITLE18=Stranger Blues   (Rosie Mae Moore.Vocal)
EXTD=
EXTT0=
EXTT1=
EXTT2=
EXTT3=
EXTT4=
EXTT5=
EXTT6=
EXTT7=
EXTT8=
EXTT9=
EXTT10=
EXTT11=
EXTT12=
EXTT13=
EXTT14=
EXTT15=
EXTT16=
EXTT17=
EXTT18=
PLAYORDER=
